<svg width="20" height="20" viewBox="0 0 20 20" fill="none" xmlns="http://www.w3.org/2000/svg">
<path d="M14.168 2.78308C15.4249 3.50879 16.4704 4.55019 17.2011 5.80416C17.9319 7.05814 18.3224 8.48122 18.3342 9.93253C18.3459 11.3838 17.9784 12.813 17.268 14.0787C16.5576 15.3443 15.529 16.4024 14.284 17.1483C13.039 17.8943 11.6208 18.3021 10.1697 18.3315C8.71866 18.3608 7.28509 18.0107 6.01093 17.3158C4.73677 16.6208 3.66619 15.6052 2.90519 14.3693C2.14419 13.1335 1.71914 11.7203 1.67214 10.2697L1.66797 9.99975L1.67214 9.72975C1.7188 8.29057 2.13759 6.88805 2.88767 5.65891C3.63774 4.42977 4.69351 3.41596 5.95205 2.71632C7.21058 2.01668 8.62892 1.65508 10.0688 1.66678C11.5087 1.67848 12.921 2.06308 14.168 2.78308ZM13.0905 7.74391C12.947 7.60043 12.7561 7.51424 12.5535 7.50151C12.351 7.48877 12.1508 7.55037 11.9905 7.67475L11.9121 7.74391L9.16797 10.4872L8.09047 9.41058L8.01214 9.34141C7.85179 9.21713 7.65161 9.1556 7.44914 9.16838C7.24667 9.18115 7.05581 9.26735 6.91235 9.4108C6.7689 9.55425 6.6827 9.74511 6.66993 9.94759C6.65716 10.1501 6.71868 10.3502 6.84297 10.5106L6.91214 10.5889L8.5788 12.2556L8.65714 12.3247C8.80328 12.4381 8.983 12.4997 9.16797 12.4997C9.35294 12.4997 9.53266 12.4381 9.6788 12.3247L9.75714 12.2556L13.0905 8.92225L13.1596 8.84391C13.284 8.68358 13.3456 8.48337 13.3329 8.28085C13.3201 8.07833 13.2339 7.88741 13.0905 7.74391Z" fill="#29DA30"/>
</svg>
