<svg width="20" height="20" viewBox="0 0 20 20" fill="none" xmlns="http://www.w3.org/2000/svg">
<path fill-rule="evenodd" clip-rule="evenodd" d="M9.335 18.67C13.9383 18.67 17.67 14.9383 17.67 10.335C17.67 5.73171 13.9383 2 9.335 2C4.73171 2 1 5.73171 1 10.335C1 14.9383 4.73171 18.67 9.335 18.67ZM12.5911 8.2116L10.4676 10.3351L12.5911 12.4585C12.8257 12.6928 12.8257 13.0732 12.5911 13.3079L12.308 13.591C12.0737 13.8256 11.6934 13.8256 11.4587 13.591L9.33522 11.4675L7.21171 13.591C6.97745 13.8256 6.59707 13.8256 6.36244 13.591L6.07935 13.3079C5.84465 13.0736 5.84465 12.6932 6.07935 12.4585L8.20279 10.3351L6.07891 8.21124C5.84429 7.97698 5.84429 7.59659 6.07891 7.36189L6.36244 7.0788C6.5967 6.84418 6.97709 6.84418 7.21171 7.0788L9.33522 9.20268L11.4587 7.07924C11.6929 6.84454 12.0733 6.84454 12.308 7.07924L12.5911 7.36233C12.8257 7.59659 12.8257 7.97698 12.5911 8.2116Z" fill="#D44D4D"/>
</svg>
